<?xml version="1.0" encoding="utf-8"?>
<!-- Generator: Adobe Illustrator 20.1.0, SVG Export Plug-In . SVG Version: 6.00 Build 0)  -->
<svg version="1.1" id="Layer_1" xmlns="http://www.w3.org/2000/svg" xmlns:xlink="http://www.w3.org/1999/xlink" x="0px" y="0px"
	 viewBox="0 0 4351.6 691.9" style="enable-background:new 0 0 4351.6 691.9;" xml:space="preserve">
<style type="text/css">
	.st0{fill:#020202;}
	.st1{font-family:'MyriadPro-Regular';}
	.st2{font-size:742.4825px;}
</style>
<path class="st0" d="M206.4,636.1c-51.9-6.8-96-40.5-114.9-88c-11.1-27.7-12.4-40.8-11.6-124.3c0.6-71.4,1-76.4,8.5-98.3
	c14.9-43.5,53.8-79.7,98.4-91.5c19.7-5.3,36.4-6.1,108.8-5.4c61.8,0.5,67.2,0.8,78.4,3.3c43.6,9.6,78.6,36.4,98.7,75.4
	c11.7,22.9,15.4,40.3,15.5,74.3v23.9l-4.4,1.6c-3.2,1.1-14,1.6-36.9,1.6l-32.6,0.1v-18.9c0-23.2-2.1-34.9-8.8-48.6
	c-7.8-16-19.3-26.5-36-32.6c-16-5.7-23.1-6.2-90.9-5.7l-63.2,0.5l-10.4,3.2c-26.4,8.2-42.7,26.7-48.5,54.8
	c-2.1,10.1-2.4,17.8-2.4,70.7c0,45.7,0.4,61.8,1.8,69.6c4.5,25.4,16.5,42.6,36.6,52.3c18.2,8.7,21.6,9.1,98.8,8.6l68.1-0.4l8.6-3.4
	c10.7-4.3,21.5-11.4,25.8-16.9l3.2-4.3h42.3h42.2l-0.8,2.9c-4.9,16.2-20.3,40.9-33.5,53.8c-21,20.7-41.6,32.1-72,39.5
	c-10.2,2.5-14.3,2.8-85.3,3C248.8,637.1,211.3,636.7,206.4,636.1z"/>
<path class="st0" d="M331.4,509c-1.4-0.3-7.1-1.4-12.5-2.4c-12.9-2.5-33-10.5-44.5-17.6c-27.2-16.9-50.4-46-60.3-75.2
	c-5.9-17.4-7.3-27-8.1-54.4l-0.8-25.9l5.1-1.5c3.4-1,16-1.5,37.5-1.5h32.3v18.9c0,22.6,2.1,34.6,8.3,47.6
	c7.8,16.4,20.8,27.9,38.3,33.9c15.9,5.4,24.4,5.9,89.8,5.4c57.9-0.5,61.8-0.6,70.9-3.2c27.7-7.7,43.5-23.9,50.4-51.4
	c2.4-9.3,2.5-14.1,2.5-77.7c0-56-0.4-69.1-1.9-75.8c-6.3-26.8-30.7-48.3-58.7-51.9c-7.2-1-32.5-1.3-75.8-1
	c-58.4,0.5-65.8,0.8-72,2.8c-11.1,3.7-21.6,9.7-28.7,16.8l-6.7,6.7h-41.6h-41.6l2.4-6.4c9.9-26,26.5-48.1,48.6-64.8
	c15.9-11.7,29.8-18.3,53.6-25c9.1-2.7,12.6-2.8,86.5-3.2c83.7-0.5,85.5-0.5,110.4,6.7c28.4,8.3,57.5,30.1,75.7,56.8
	c7.7,11.2,16.3,30.2,20.2,44.3l3.4,12.4v83.4v83.4l-3.4,12.1c-4.7,17.2-10,29.1-18.8,42.8c-17.7,27.3-44.1,48-73.8,58
	c-22.2,7.5-26.3,7.7-109.1,7.6C367.8,509.6,332.8,509.4,331.4,509z"/>
<text transform="matrix(1 0 0 1 742.7716 591.8071)" class="st1 st2">clonesite.ru</text>
</svg>
