<!DOCTYPE svg PUBLIC "-//W3C//DTD SVG 20010904//EN" "http://www.w3.org/TR/2001/REC-SVG-20010904/DTD/svg10.dtd">
<svg version="1.0" xmlns="http://www.w3.org/2000/svg" width="632px" height="668px" viewBox="0 0 6320 6680" preserveAspectRatio="xMidYMid meet">
<g id="layer101" fill="#020202" stroke="none">
 <path d="M925 5999 c-45 -17 -94 -68 -121 -124 -45 -96 -27 -243 39 -313 60 -65 184 -86 263 -45 44 22 46 28 23 61 l-17 23 -41 -22 c-107 -56 -205 25 -204 168 1 151 100 230 215 172 43 -22 43 -22 69 24 12 22 14 19 -31 42 -42 22 -153 29 -195 14z"/>
 <path d="M1594 5991 c-80 -36 -123 -120 -123 -241 -1 -131 63 -226 168 -249 143 -30 253 61 268 223 19 202 -146 343 -313 267z m172 -82 c75 -72 74 -239 -2 -314 -28 -29 -42 -35 -76 -35 -149 0 -186 303 -45 374 42 22 84 13 123 -25z"/>
 <path d="M2670 5997 c-48 -16 -104 -76 -124 -132 -36 -106 -10 -249 56 -312 58 -54 110 -69 189 -52 88 19 139 82 139 173 0 72 -9 76 -171 76 l-139 0 0 32 c0 46 38 117 74 139 40 24 90 24 146 -2 l45 -20 18 22 c23 29 19 40 -29 64 -46 23 -152 30 -204 12z m170 -348 c0 -44 -47 -89 -94 -89 -28 0 -44 8 -74 38 -22 22 -41 49 -44 60 -6 22 -4 22 103 22 l109 0 0 -31z"/>
 <path d="M3084 5996 c-64 -20 -66 -23 -48 -57 11 -23 20 -29 32 -23 85 36 98 38 138 23 84 -32 66 -99 -42 -154 -73 -37 -95 -53 -117 -85 -21 -30 -22 -91 -2 -130 29 -56 127 -88 211 -70 73 16 80 22 64 59 -15 36 -12 36 -52 15 -68 -35 -169 5 -152 60 11 35 35 55 117 98 52 27 83 50 92 69 20 38 19 119 -1 148 -38 53 -149 75 -240 47z"/>
 <path d="M3793 6000 c-50 -20 -58 -50 -62 -247 l-3 -183 -34 0 c-30 0 -34 -3 -34 -25 0 -16 6 -25 16 -25 27 0 73 -56 86 -104 11 -43 14 -46 46 -46 27 0 33 3 28 16 -3 9 -9 40 -12 70 l-7 54 62 0 c63 0 70 6 55 44 -5 12 -20 16 -60 16 l-54 0 0 173 c0 121 4 177 12 185 7 7 33 12 59 12 42 0 47 3 51 25 5 22 0 26 -31 35 -43 12 -88 12 -118 0z"/>
 <path d="M4125 5992 c-102 -49 -150 -164 -126 -298 24 -126 103 -200 213 -197 105 2 173 61 185 161 5 42 2 53 -16 71 -19 19 -32 21 -161 21 -158 0 -154 -3 -125 82 34 97 118 133 210 88 50 -24 49 -24 76 22 8 14 2 21 -33 39 -61 31 -169 36 -223 11z m185 -332 c0 -29 -27 -78 -49 -90 -34 -18 -78 -11 -111 16 -27 23 -60 72 -60 89 0 3 50 5 110 5 104 0 110 -1 110 -20z"/>
 <path d="M4500 5990 c-43 -43 -14 -110 47 -110 58 0 85 69 41 110 -28 25 -62 26 -88 0z"/>
 <path d="M5153 5990 c-54 -33 -66 -69 -70 -210 -2 -69 -4 -158 -6 -197 l-2 -73 47 0 48 0 0 180 c0 196 6 222 51 241 41 16 113 -12 140 -55 18 -28 20 -47 17 -199 l-3 -167 43 0 42 0 0 196 c0 113 4 203 10 214 8 15 17 18 39 14 23 -5 29 -2 34 17 7 27 -2 35 -56 50 -47 13 -75 4 -89 -27 -12 -26 -23 -30 -34 -13 -12 21 -89 49 -134 49 -27 0 -58 -8 -77 -20z"/>
 <path d="M1260 5656 c0 -189 -3 -358 -6 -375 l-6 -31 46 0 46 0 0 375 0 375 -40 0 -40 0 0 -344z"/>
 <path d="M2027 5993 c-4 -3 -7 -98 -7 -210 0 -152 -4 -212 -14 -237 -14 -34 -14 -34 16 -40 55 -11 65 -8 71 24 l6 30 51 -32 c62 -38 144 -43 188 -11 56 41 62 69 62 286 l0 197 -39 0 -40 0 -3 -196 c-3 -192 -3 -196 -27 -215 -28 -23 -71 -24 -114 -3 -69 35 -67 29 -67 231 l0 183 -38 0 c-21 0 -42 -3 -45 -7z"/>
 <path d="M3480 5786 c0 -117 -3 -228 -6 -245 l-6 -31 46 0 46 0 0 245 0 245 -40 0 -40 0 0 -214z"/>
 <path d="M4740 5796 c0 -150 -4 -214 -14 -244 -14 -38 -14 -40 7 -46 36 -10 67 -7 71 7 3 6 7 25 11 40 l6 29 39 -36 c35 -31 103 -57 116 -43 3 3 0 23 -6 46 -9 33 -15 41 -34 41 -24 0 -67 29 -98 65 -15 17 -17 44 -18 183 l0 162 -40 0 -40 0 0 -204z"/>
 <path d="M3476 5384 c-36 -36 -6 -104 46 -104 25 0 58 36 58 63 0 49 -70 76 -104 41z"/>
 <path d="M2025 4719 c-411 -54 -760 -321 -910 -697 -88 -219 -98 -323 -92 -984 5 -565 8 -605 67 -778 118 -344 426 -631 779 -724 156 -42 288 -48 861 -43 489 4 532 6 621 26 345 76 622 288 781 597 93 181 122 319 123 588 l0 189 -35 13 c-25 9 -111 13 -292 13 l-258 1 0 -150 c0 -184 -17 -276 -70 -385 -62 -127 -153 -210 -285 -258 -127 -45 -183 -49 -720 -45 l-500 4 -82 25 c-209 65 -338 211 -384 434 -17 80 -19 141 -19 560 0 362 3 489 14 551 36 201 131 337 290 414 144 69 171 72 782 68 l539 -3 68 -27 c85 -34 170 -90 204 -134 l25 -34 335 0 334 0 -6 23 c-39 128 -161 324 -265 426 -166 164 -329 254 -570 313 -81 20 -113 22 -675 24 -324 1 -621 -2 -660 -7z"/>
 <path d="M3015 3713 c-11 -2 -56 -11 -99 -19 -102 -20 -261 -83 -352 -139 -215 -134 -399 -364 -477 -595 -47 -138 -58 -214 -64 -431 l-6 -205 40 -12 c27 -8 127 -12 297 -12 l256 0 0 150 c0 179 17 274 66 377 62 130 165 221 303 268 126 43 193 47 711 43 458 -4 489 -5 561 -25 219 -61 344 -189 399 -407 19 -74 20 -112 20 -615 0 -443 -3 -547 -15 -600 -50 -212 -243 -382 -465 -411 -57 -8 -257 -10 -600 -8 -462 4 -521 6 -570 22 -88 29 -171 77 -227 133 l-53 53 -329 0 -329 0 19 -51 c78 -206 210 -381 385 -513 126 -93 236 -145 424 -198 72 -21 100 -22 685 -25 663 -4 677 -4 874 53 225 66 455 238 599 450 61 89 129 239 160 351 l27 98 0 660 0 660 -27 96 c-37 136 -79 230 -149 339 -140 216 -349 380 -584 459 -176 59 -208 61 -864 60 -328 -1 -605 -3 -616 -6z"/>
 </g>

</svg>