<?xml version="1.0" encoding="utf-8"?>
<!-- Generator: Adobe Illustrator 20.1.0, SVG Export Plug-In . SVG Version: 6.00 Build 0)  -->
<svg version="1.1" id="Layer_1" xmlns="http://www.w3.org/2000/svg" xmlns:xlink="http://www.w3.org/1999/xlink" x="0px" y="0px"
	 viewBox="0 0 1000 1000" style="enable-background:new 0 0 1000 1000;" xml:space="preserve">
<style type="text/css">
	.st0{fill:#F61834;}
	.st1{fill:#FEDEE2;}
	.st2{fill:#FFFEFE;}
</style>
<path class="st0" d="M468.2,939c-44-4.5-71.8-10.1-105.2-21c-44-14.3-86.4-36.1-123.7-63.6c-32.7-24-65.1-56-89.9-88.5
	c-46.8-61.4-76.8-134.6-86.3-211c-4.4-35.4-4.4-75.5,0.1-111.1c15.6-125,86.6-239.5,192.2-310C319,91.5,390,67,466.8,60.9
	c15.1-1.2,50.4-1.2,65.5,0c97.1,7.6,185.6,44.8,258,108.5c11.7,10.3,36.2,35.1,45.5,46.2c52.9,63.1,86.6,137.1,98.8,216.4
	c4.9,32,7,75.5,4.6,97.1c-0.5,4.3-1.4,12.4-1.9,18.1c-3.5,35.8-14,78.3-27.9,113.9c-6.4,16.6-22.7,49.4-31.9,64.7
	c-30,49.5-66.6,90.3-112.6,125.3c-37.6,28.7-84,52.9-129.7,67.7c-26.6,8.5-61.8,16-88,18.6c-5.7,0.5-13.9,1.4-18.1,1.9
	C519.7,940.2,479,940.1,468.2,939z"/>
<g>
	<path class="st1" d="M465,983.9c-48.5-5-79.1-11.1-116-23.1c-48.5-15.8-95.2-39.8-136.3-70.1c-36-26.4-71.7-61.7-99.1-97.6
		C62,725.4,29,644.7,18.5,560.5c-4.8-39-4.8-83.2,0.1-122.5c17.2-137.8,95.5-264,211.9-341.7c70-46.6,148.2-73.6,232.9-80.3
		c16.6-1.3,55.6-1.3,72.2,0c107,8.4,204.6,49.4,284.4,119.6c12.9,11.3,39.9,38.7,50.1,50.9C928.4,256.1,965.6,337.6,979,425
		c5.4,35.3,7.7,83.2,5.1,107c-0.6,4.7-1.5,13.7-2.1,20c-3.9,39.5-15.4,86.3-30.7,125.5c-7.1,18.3-25,54.5-35.2,71.3
		C883,803.4,842.7,848.3,792,886.9c-41.4,31.6-92.6,58.3-143,74.6c-29.3,9.4-68.1,17.6-97,20.5c-6.3,0.6-15.3,1.5-20,2.1
		C521.7,985.2,476.8,985.1,465,983.9z M549,899.6c83.2-11.3,155.4-44.1,218.1-99.2c35.9-31.4,70.3-76.3,92.7-121.1
		c20.1-40,33.9-86.8,39.8-135.3c2.6-20.5,2.6-67.7,0.1-88c-3.9-31.2-9.2-55.4-18-82.1c-40.1-121.6-135-216.5-256.2-256.5
		c-27.1-8.9-51.3-14.2-82.5-18.1c-20.3-2.5-67.5-2.5-88,0.1c-40.5,4.9-78.7,14.9-113.3,29.7c-25.2,10.8-40.7,19.2-65.2,35.4
		c-98.1,64.9-161.2,167-177.2,286.5c-2.3,16.9-2.6,76.2-0.5,93c14.4,116.9,73.3,216.9,167.2,284c54.6,39,123.8,65.4,188.5,71.9
		c6.1,0.6,12.4,1.3,14,1.5c1.7,0.2,17.6,0.3,35.5,0.1C527.7,901.3,539.9,900.8,549,899.6z"/>
	<path class="st1" d="M585.5,667.6c-2.2-0.7-5.1-1.8-6.5-2.6c-5.5-2.9-78.7-57.3-87.9-65.4c-3.6-3.1-6.9-5.6-7.4-5.6
		c-0.6,0-8,6.9-16.6,15.3c-20.3,19.7-35.1,33.1-38.9,35.1c-1.7,0.9-5,1.6-7.3,1.6c-3.6,0-4.7-0.6-7.7-3.7
		c-2.9-3.2-4.8-7.7-11.7-27.8c-25.8-75.9-29-84.9-31.2-87.6c-2.8-3.3-7.4-5.1-31.8-12.5c-9.9-3.1-25.9-8.1-35.5-11.2
		c-9.6-3-18.7-5.6-20.1-5.8c-1.5-0.1-4.7-1.7-7.2-3.5c-4.3-3.2-4.6-3.7-4.7-8c0-4.2,0.4-5,4.4-8.7c2.4-2.2,5.9-4.5,7.7-5
		c1.9-0.5,49.8-18.4,106.4-39.7c231.2-86.9,267.2-100.4,270.7-101c4-0.8,6.8,0.3,11.1,4.3c2.3,2.2,2.7,3.4,2.7,8.2
		c0,3.1-0.5,6.1-1,6.6c-0.6,0.6-6.4,26.7-13,58c-37.6,179.8-50.2,239.4-51.5,244c-2,7.1-6.4,12.8-11.4,14.8
		C592.3,669.3,590.9,669.3,585.5,667.6z M425.1,585.5c0.6-5.5,1.7-15.1,2.4-21.2c0.7-6.7,1.9-12.3,2.9-13.7
		c1.7-2.6,54.3-51,122-112.2c22.6-20.4,42.1-38.2,43.2-39.5c1.2-1.3,2.5-3.9,2.9-5.6l0.7-3.3H594c-2.8,0-6.4,0.7-8,1.5
		c-4.7,2.4-36.9,22.9-83,52.7c-43.2,27.9-64.2,41.1-91.9,57.9c-8.5,5.2-16.3,10.6-17.4,12.1l-2,2.7l5.5,14.3
		c9.1,23.2,15,41.4,22.9,70.8l1.2,4.5l1.3-5.5C423.3,598,424.4,591,425.1,585.5z"/>
</g>
<path class="st2" d="M582.2,666c-2.3-1.1-12.5-7.9-22.5-15.3L526,626.1c-8.5-6.3-19.7-14.8-24.8-19c-5.2-4.2-11.5-9.1-13.9-11
	l-4.4-3.4l-17.7,17.4c-21.1,20.8-33.5,32-37.9,34.3c-6.5,3.3-13,1.1-16.4-5.5c-1.1-2.3-9.9-27.2-19.4-55.4s-18.1-52.7-18.9-54.3
	c-0.9-1.7-2.9-4-4.4-5.1c-1.6-1.1-14.1-5.5-27.8-9.6c-13.7-4.2-31.7-9.9-39.9-12.6c-8.3-2.7-16.1-4.9-17.4-4.9s-4.4-1.5-6.8-3.2
	c-4.2-3.3-4.3-3.4-4.1-8.8c0.3-5.1,0.5-5.6,4.6-8.7c2.4-1.8,5.6-3.6,7-4c1.5-0.3,61.9-22.8,134.2-50
	C634.9,340.7,658.6,332,662.4,332c2.5,0,4.5,0.9,7.1,3.1c3.2,2.8,3.5,3.6,3.5,8.5c0,3-0.4,6.2-1,7.2c-0.5,0.9-6.8,29.8-13.9,64.2
	c-27.6,132.7-48.2,230.7-49.7,236C604.3,665.8,594.3,671.5,582.2,666z M423.9,597.3c0.6-3.2,2-14.1,3.1-24.3
	c1.4-12.4,2.6-19.5,3.8-21.6c1.7-3.2,42.9-41.3,117.2-108.3c52.3-47.1,51-45.8,51-50.4V389h-5c-6.5,0-4.5-1.2-88.5,53
	c-49.5,32-67.4,43.2-95.5,60.2c-10.6,6.4-16,10.2-17.1,12.3c-1.7,3-1.7,3.1,2.7,14c6.6,16.2,15.9,43.9,20.5,61
	c5.2,19.2,4.9,18.5,5.9,15.8C422.5,604.1,423.4,600.5,423.9,597.3z"/>
</svg>
