<!DOCTYPE svg PUBLIC "-//W3C//DTD SVG 20010904//EN" "http://www.w3.org/TR/2001/REC-SVG-20010904/DTD/svg10.dtd">
<svg version="1.0" xmlns="http://www.w3.org/2000/svg" width="632px" height="668px" viewBox="0 0 6320 6680" preserveAspectRatio="xMidYMid meet">
<g id="layer101" fill="#020202" stroke="none">
 <path d="M2025 4719 c-411 -54 -760 -321 -910 -697 -88 -219 -98 -323 -92 -984 5 -565 8 -605 67 -778 118 -344 426 -631 779 -724 156 -42 288 -48 861 -43 489 4 532 6 621 26 345 76 622 288 781 597 93 181 122 319 123 588 l0 189 -35 13 c-25 9 -111 13 -292 13 l-258 1 0 -150 c0 -184 -17 -276 -70 -385 -62 -127 -153 -210 -285 -258 -127 -45 -183 -49 -720 -45 l-500 4 -82 25 c-209 65 -338 211 -384 434 -17 80 -19 141 -19 560 0 362 3 489 14 551 36 201 131 337 290 414 144 69 171 72 782 68 l539 -3 68 -27 c85 -34 170 -90 204 -134 l25 -34 335 0 334 0 -6 23 c-39 128 -161 324 -265 426 -166 164 -329 254 -570 313 -81 20 -113 22 -675 24 -324 1 -621 -2 -660 -7z"/>
 <path d="M3015 3713 c-11 -2 -56 -11 -99 -19 -102 -20 -261 -83 -352 -139 -215 -134 -399 -364 -477 -595 -47 -138 -58 -214 -64 -431 l-6 -205 40 -12 c27 -8 127 -12 297 -12 l256 0 0 150 c0 179 17 274 66 377 62 130 165 221 303 268 126 43 193 47 711 43 458 -4 489 -5 561 -25 219 -61 344 -189 399 -407 19 -74 20 -112 20 -615 0 -443 -3 -547 -15 -600 -50 -212 -243 -382 -465 -411 -57 -8 -257 -10 -600 -8 -462 4 -521 6 -570 22 -88 29 -171 77 -227 133 l-53 53 -329 0 -329 0 19 -51 c78 -206 210 -381 385 -513 126 -93 236 -145 424 -198 72 -21 100 -22 685 -25 663 -4 677 -4 874 53 225 66 455 238 599 450 61 89 129 239 160 351 l27 98 0 660 0 660 -27 96 c-37 136 -79 230 -149 339 -140 216 -349 380 -584 459 -176 59 -208 61 -864 60 -328 -1 -605 -3 -616 -6z"/>
 </g>

</svg>