<?xml version="1.0" encoding="iso-8859-1"?>
<!-- Generator: Adobe Illustrator 19.0.0, SVG Export Plug-In . SVG Version: 6.00 Build 0)  -->
<svg version="1.1" id="Capa_1" xmlns="http://www.w3.org/2000/svg" xmlns:xlink="http://www.w3.org/1999/xlink" x="0px" y="0px"
	 viewBox="0 0 512 512" style="enable-background:new 0 0 512 512;" xml:space="preserve">
	<g>
		<polygon points="233.143,82.286 155.429,82.286 155.429,100.571 246.857,100.571 			"/>
		<rect x="182.857" y="429.714" width="146.286" height="45.714"/>
		<path d="M347.429,164.571c3.055,0.011,6.108,0.191,9.143,0.539v-46.254H155.429V256h110.254
			c-2.683-23.282,4.72-46.601,20.341-64.072C301.644,174.456,323.992,164.5,347.429,164.571z"/>
		<path d="M366.446,466.286h-19.018v18.286c0.001,2.425-0.961,4.752-2.676,6.466c-1.715,1.715-4.041,2.678-6.467,2.676H173.714
			c-2.425,0.001-4.752-0.961-6.466-2.676c-1.715-1.715-2.678-4.041-2.676-6.466v-18.286h-19.018
			c-2.668-0.005-5.204,1.16-6.938,3.188L102.17,512h307.67l-36.455-42.527C371.65,467.446,369.114,466.281,366.446,466.286z"/>
		<path d="M0,402.286c0.003,5.048,4.095,9.14,9.143,9.143h493.714c5.048-0.003,9.139-4.095,9.143-9.143v-27.429H0V402.286z"/>
		<path d="M502.857,0H9.143C4.095,0.003,0.003,4.095,0,9.143v347.429h512V9.143C511.997,4.095,507.905,0.003,502.857,0z
			 M428.528,260.825c-6.779,39.489-41.032,68.344-81.099,68.318c-34.831-0.059-65.857-22.025-77.486-54.857H155.429
			c-10.094-0.013-18.273-8.192-18.286-18.286V82.286c0.013-10.094,8.192-18.273,18.286-18.286h77.714
			c5.735,0.024,11.131,2.717,14.598,7.286l21.973,29.286h86.857c10.094,0.013,18.273,8.192,18.286,18.286v50.514
			C412.639,182.71,435.307,221.336,428.528,260.825z M429.714,36.571h-82.286c-5.049,0-9.143-4.093-9.143-9.143
			c0-5.049,4.093-9.143,9.143-9.143h82.286c5.049,0,9.143,4.093,9.143,9.143C438.857,32.478,434.764,36.571,429.714,36.571z
			 M484.571,36.571h-18.286c-5.049,0-9.143-4.093-9.143-9.143c0-5.049,4.093-9.143,9.143-9.143h18.286
			c5.049,0,9.143,4.093,9.143,9.143C493.714,32.478,489.621,36.571,484.571,36.571z"/>
		<path fill="#67bb59" d="M347.429,182.857c-35.346,0-64,28.654-64,64c0,35.346,28.654,64,64,64s64-28.654,64-64
			C411.386,211.529,382.757,182.9,347.429,182.857z M382.464,224.5l-36.571,54.857c-1.519,2.279-3.98,3.756-6.705,4.027
			c-0.303,0.027-0.607,0.045-0.901,0.045c-2.425-0.001-4.75-0.964-6.464-2.679l-18.286-18.286
			c-3.515-3.579-3.489-9.322,0.058-12.87c3.547-3.547,9.29-3.573,12.87-0.058l10.402,10.402l30.384-45.581
			c2.822-4.145,8.457-5.243,12.629-2.462S385.205,220.301,382.464,224.5z"/>
	</g>
</svg>
